<?xml version="1.0" standalone="no"?>
<!DOCTYPE svg PUBLIC "-//W3C//DTD SVG 20010904//EN"
 "http://www.w3.org/TR/2001/REC-SVG-20010904/DTD/svg10.dtd">
<svg version="1.0" xmlns="http://www.w3.org/2000/svg"
 width="497.000000pt" height="153.000000pt" viewBox="0 0 497.000000 153.000000"
 preserveAspectRatio="xMidYMid meet">

<g transform="translate(0.000000,153.000000) scale(0.100000,-0.100000)"
fill="#000000" stroke="none">
<path d="M4476 1328 c-11 -34 -14 -88 -5 -88 5 0 9 6 9 14 0 9 12 16 28 18 39
4 44 44 7 58 -33 13 -35 13 -39 -2z m52 -25 c-2 -10 -13 -19 -26 -21 -17 -3
-22 2 -22 17 0 16 6 21 26 21 19 0 25 -5 22 -17z"/>
<path d="M4352 1317 c-6 -7 -8 -27 -3 -47 5 -29 12 -36 35 -38 39 -5 49 9 41
57 -6 37 -10 41 -35 41 -15 0 -32 -6 -38 -13z m62 -28 c7 -37 1 -49 -24 -49
-20 0 -30 19 -30 56 0 19 5 24 24 24 18 0 25 -7 30 -31z"/>
<path d="M4570 1269 c-12 -23 -19 -43 -16 -46 2 -3 12 9 21 26 8 17 17 31 19
31 2 0 2 -19 -1 -42 l-6 -41 38 29 38 29 -17 -34 c-10 -18 -15 -35 -12 -38 3
-3 15 15 27 41 27 55 19 69 -19 33 -16 -15 -31 -27 -34 -27 -3 0 -4 18 -1 40
7 53 -10 52 -37 -1z"/>
<path d="M4240 1275 c0 -3 9 -24 20 -45 22 -43 35 -48 66 -25 22 17 12 20 -16
5 -17 -9 -22 -5 -40 30 -18 36 -30 49 -30 35z"/>
<path d="M4170 1215 l-24 -26 35 -35 35 -35 24 28 c23 25 23 26 2 9 -17 -15
-25 -17 -34 -8 -10 10 -9 17 1 35 14 22 14 22 -7 3 -20 -17 -22 -17 -28 -2 -4
10 1 25 11 36 27 29 12 24 -15 -5z"/>
<path d="M4697 1192 l-37 -38 27 -25 27 -24 -18 29 c-15 23 -16 30 -5 37 8 5
21 1 34 -9 19 -16 19 -16 6 0 -7 10 -10 25 -7 34 6 15 10 14 33 -7 l27 -24
-23 33 c-12 17 -23 32 -25 32 -1 0 -19 -17 -39 -38z"/>
<path d="M4138 1120 c34 -38 40 -52 20 -46 -35 11 -78 15 -78 7 0 -11 93 -22
102 -12 5 4 -11 25 -35 46 -38 37 -39 37 -9 5z"/>
<path d="M4761 1109 c-24 -10 -41 -22 -38 -25 3 -3 19 2 36 11 38 19 39 14 5
-31 -15 -19 -25 -37 -22 -39 3 -3 26 4 52 16 26 11 45 23 43 26 -3 2 -14 0
-25 -6 -36 -19 -44 -12 -22 19 31 43 22 52 -29 29z"/>
<path d="M4061 1020 c0 -8 -4 -25 -7 -36 -5 -19 0 -22 42 -29 52 -7 64 1 63
45 -1 22 -2 21 -10 -8 -12 -39 -31 -37 -40 4 l-7 29 -1 -27 c-2 -40 -29 -36
-34 5 -2 17 -5 25 -6 17z"/>
<path d="M4840 999 c0 -12 -15 -20 -47 -28 l-48 -10 48 3 c36 3 50 0 57 -13 8
-13 9 -12 10 9 0 14 -5 32 -10 40 -8 13 -10 13 -10 -1z"/>
<path d="M237 913 c-4 -3 -7 -156 -7 -340 l0 -333 165 0 166 0 -3 63 -3 62
-97 3 -98 3 0 74 0 75 140 0 140 0 0 60 0 60 -140 0 -141 0 3 78 3 77 98 3 97
3 0 59 0 60 -158 0 c-87 0 -162 -3 -165 -7z"/>
<path d="M799 907 c-89 -33 -139 -102 -139 -190 0 -98 59 -167 159 -188 82
-16 120 -35 127 -63 11 -45 1 -70 -38 -91 -37 -20 -38 -21 -38 -77 0 -53 2
-58 23 -58 35 0 121 45 145 74 72 93 43 244 -57 296 -22 11 -59 22 -83 26 -69
9 -96 23 -107 55 -20 57 17 104 81 103 43 -2 78 -26 78 -56 0 -16 8 -18 65
-18 l65 0 -7 33 c-10 55 -45 108 -90 134 -51 30 -133 39 -184 20z"/>
<path d="M1235 905 c-92 -33 -151 -147 -126 -243 21 -76 115 -142 204 -142 34
0 87 -48 87 -80 0 -25 -51 -80 -74 -80 -13 0 -16 -12 -16 -60 0 -67 3 -69 73
-49 47 13 106 63 123 106 18 42 18 125 0 166 -28 65 -113 117 -193 117 -61 0
-102 66 -73 119 28 53 127 47 150 -9 12 -28 16 -30 71 -30 55 0 59 2 59 23 -1
36 -35 101 -69 130 -55 46 -140 59 -216 32z"/>
<path d="M1550 785 l0 -135 60 0 59 0 3 73 3 72 55 -3 c123 -7 189 -71 198
-192 10 -146 -55 -223 -198 -232 l-55 -3 -3 73 -3 72 -59 0 -60 0 0 -135 0
-135 93 0 c225 1 356 71 402 216 24 78 18 221 -13 285 -60 123 -180 178 -389
179 l-93 0 0 -135z"/>
<path d="M2090 580 l0 -340 160 0 160 0 0 65 0 65 -95 0 -95 0 0 75 0 74 138
3 137 3 3 58 3 57 -141 0 -140 0 0 80 0 80 95 0 95 0 0 60 0 60 -160 0 -160 0
0 -340z"/>
<path d="M2520 580 l0 -340 160 0 160 0 0 65 0 65 -100 0 -101 0 3 73 3 72
138 3 137 3 0 59 0 59 -137 3 -138 3 0 75 0 75 98 3 97 3 0 59 0 60 -160 0
-160 0 0 -340z"/>
<path d="M2992 863 l3 -58 123 -3 122 -3 0 61 0 60 -125 0 -126 0 3 -57z"/>
<path d="M3392 608 c-67 -172 -126 -325 -131 -340 l-11 -28 68 0 67 0 65 185
c35 102 67 185 70 185 3 0 34 -83 70 -185 l65 -185 63 0 c43 0 62 4 62 13 0
18 -253 667 -261 667 -3 0 -60 -141 -127 -312z"/>
<path d="M3820 912 c0 -5 53 -82 118 -173 l117 -164 5 -165 5 -165 63 -3 62
-3 0 157 0 156 80 113 c44 62 80 116 80 119 0 3 -33 6 -74 6 l-75 0 -32 -45
c-18 -25 -36 -45 -40 -45 -4 0 -43 50 -85 110 l-78 110 -73 0 c-40 0 -73 -4
-73 -8z"/>
<path d="M4100 913 c-38 -7 -51 -22 -43 -52 8 -35 5 -33 57 -26 39 6 46 11 46
30 0 19 -25 60 -33 54 -1 -1 -13 -4 -27 -6z m45 -34 c8 -25 9 -25 -37 -32 -35
-5 -38 -4 -38 17 0 29 7 36 41 36 19 0 30 -6 34 -21z"/>
<path d="M4741 838 c-12 -32 -3 -48 24 -48 15 0 26 8 30 20 3 11 13 20 21 20
12 0 14 -7 9 -32 -5 -25 -4 -29 4 -18 28 40 -8 92 -36 54 -7 -10 -13 -21 -13
-26 0 -4 -7 -8 -16 -8 -13 0 -15 7 -10 30 7 35 -1 40 -13 8z"/>
<path d="M4700 752 c0 -6 16 -20 34 -32 24 -14 33 -26 30 -38 -4 -10 2 -7 15
8 24 29 28 48 6 30 -11 -9 -21 -6 -50 15 -19 15 -35 23 -35 17z"/>
<path d="M4625 680 c-17 -19 -17 -21 10 -60 15 -22 30 -38 32 -36 3 2 -7 22
-21 43 -24 35 -25 39 -9 51 25 18 29 16 53 -24 12 -19 25 -33 28 -30 9 10 -42
76 -59 76 -9 0 -24 -9 -34 -20z"/>
<path d="M3110 552 c0 -171 -2 -175 -97 -182 l-68 -5 -3 -62 -3 -63 64 0 c120
0 202 50 226 137 6 21 11 100 11 176 l0 137 -65 0 -65 0 0 -138z"/>
<path d="M4538 643 c-22 -6 -28 -25 -19 -59 10 -37 30 -48 63 -35 l27 10 -15
46 c-15 44 -21 47 -56 38z m52 -69 c0 -21 -34 -26 -47 -8 -19 26 -16 62 5 66
16 4 40 -30 42 -58z"/>
<path d="M4331 605 c-12 -45 -6 -62 24 -67 35 -7 46 4 48 53 2 43 1 44 -30 47
-29 3 -33 0 -42 -33z m63 16 c3 -5 3 -23 0 -40 -5 -24 -12 -31 -30 -31 -19 0
-24 5 -24 24 0 13 3 31 6 40 7 17 39 22 48 7z"/>
<path d="M4450 615 c7 -8 10 -31 8 -50 -2 -20 0 -35 7 -35 5 0 10 22 10 50 0
42 -3 50 -19 50 -15 0 -16 -3 -6 -15z"/>
</g>
</svg>
