<?xml version="1.0" standalone="no"?>
<!DOCTYPE svg PUBLIC "-//W3C//DTD SVG 20010904//EN"
 "http://www.w3.org/TR/2001/REC-SVG-20010904/DTD/svg10.dtd">
<svg version="1.0" xmlns="http://www.w3.org/2000/svg"
 width="499.000000pt" height="128.000000pt" viewBox="0 0 499.000000 128.000000"
 preserveAspectRatio="xMidYMid meet">

<g transform="translate(0.000000,128.000000) scale(0.100000,-0.100000)"
fill="#000000" stroke="none">
<path d="M747 804 l-147 -74 -155 35 c-85 19 -159 35 -165 35 -6 0 23 -67 65
-149 l77 -150 -37 -157 c-20 -86 -34 -158 -32 -161 3 -2 70 29 150 69 l146 72
148 -33 c81 -18 156 -35 167 -38 14 -4 0 30 -58 140 -42 79 -76 153 -76 164 0
10 15 86 34 168 19 83 34 150 33 151 -1 1 -68 -31 -150 -72z"/>
<path d="M1168 830 c-61 -33 -83 -73 -83 -157 0 -66 2 -74 30 -103 39 -41 53
-48 117 -60 77 -15 100 -33 96 -78 -2 -31 -9 -40 -35 -52 -31 -14 -33 -18 -33
-69 l0 -53 38 7 c94 17 147 87 140 184 -7 95 -57 143 -168 160 -61 10 -80 25
-80 65 0 40 9 52 45 66 38 14 83 -4 91 -36 6 -22 12 -24 61 -24 l56 0 -6 35
c-18 110 -162 171 -269 115z"/>
<path d="M1460 725 l0 -125 60 0 60 0 0 125 0 125 -60 0 -60 0 0 -125z"/>
<path d="M1800 665 l0 -185 -170 0 -170 0 0 -110 0 -111 58 3 57 3 3 52 3 53
110 0 109 0 0 -55 0 -55 55 0 55 0 0 295 0 295 -55 0 -55 0 0 -185z"/>
<path d="M1940 801 l0 -49 119 -4 c136 -3 161 -15 161 -74 0 -54 -25 -64 -162
-64 l-118 0 0 -175 0 -175 55 0 55 0 0 120 0 120 33 0 c33 0 34 -2 87 -120
l53 -120 59 0 c32 0 58 4 58 9 0 5 -25 62 -55 127 -30 64 -54 118 -53 118 133
69 142 259 15 316 -34 16 -66 20 -174 20 l-133 0 0 -49z"/>
<path d="M2370 555 l0 -295 140 0 140 0 0 55 0 55 -85 0 -85 0 0 65 0 64 118
3 117 3 3 53 3 52 -120 0 -121 0 0 70 0 70 85 0 85 0 0 50 0 50 -140 0 -140 0
0 -295z"/>
<path d="M2740 845 c0 -2 50 -74 110 -158 l110 -154 0 -137 0 -136 55 0 55 0
0 141 0 141 62 86 c34 48 66 93 71 100 7 9 -6 12 -60 12 l-70 0 -28 -40 c-15
-22 -30 -40 -34 -40 -3 1 -35 43 -71 95 l-65 94 -67 1 c-38 0 -68 -2 -68 -5z"/>
<path d="M3457 838 c-40 -99 -217 -562 -217 -569 0 -6 23 -9 56 -7 l57 3 58
165 c32 91 58 163 59 160 1 -3 27 -77 58 -165 l57 -160 58 -3 c31 -2 57 0 57
4 0 16 -225 584 -231 584 -4 0 -9 -6 -12 -12z"/>
<path d="M3730 625 l0 -225 55 0 54 0 3 122 3 123 134 -193 135 -192 53 0 53
0 0 295 0 295 -55 0 -55 0 -2 -190 -3 -191 -133 191 -133 190 -54 0 -55 0 0
-225z"/>
<path d="M4250 573 c0 -231 2 -275 13 -263 8 8 42 48 77 88 34 39 66 72 69 72
4 0 44 -47 91 -105 l84 -105 69 0 c41 0 67 4 65 10 -1 5 -54 71 -116 145 -74
88 -111 139 -106 147 4 7 53 69 109 138 56 69 105 131 109 138 5 9 -9 12 -61
12 l-68 0 -110 -136 -110 -136 -3 136 -3 136 -54 0 -55 0 0 -277z"/>
</g>
</svg>
